<?xml version="1.0" encoding="UTF-8"?>
<!DOCTYPE svg PUBLIC "-//W3C//DTD SVG 1.1//EN" "http://www.w3.org/Graphics/SVG/1.1/DTD/svg11.dtd">
<svg xmlns="http://www.w3.org/2000/svg" version="1.1" width="2000px" height="2000px" style="shape-rendering:geometricPrecision; text-rendering:geometricPrecision; image-rendering:optimizeQuality; fill-rule:evenodd; clip-rule:evenodd" xmlns:xlink="http://www.w3.org/1999/xlink">
<g><path style="opacity:1" fill="#000000" d="M 973.5,-0.5 C 990.833,-0.5 1008.17,-0.5 1025.5,-0.5C 1123.94,13.782 1193.11,66.4486 1233,157.5C 1241.16,178.807 1246.49,200.807 1249,223.5C 1249.33,337.5 1249.67,451.5 1250,565.5C 1347.93,508.115 1446.43,451.615 1545.5,396C 1586.94,377.538 1630.27,370.538 1675.5,375C 1775.61,389.454 1845.11,443.288 1884,536.5C 1914.5,628.327 1899.83,711.994 1840,787.5C 1826.03,802.809 1810.86,816.643 1794.5,829C 1785.67,834.917 1776.67,840.583 1767.5,846C 1678.8,896.677 1590.47,947.843 1502.5,999.5C 1595.63,1053.9 1688.97,1108.07 1782.5,1162C 1848.37,1205.19 1886.87,1266.03 1898,1344.5C 1906.07,1432.98 1877.24,1506.81 1811.5,1566C 1732.85,1627.72 1646.51,1641.05 1552.5,1606C 1544.04,1602.27 1535.71,1598.27 1527.5,1594C 1434.75,1540.88 1342.25,1487.38 1250,1433.5C 1249.67,1547.17 1249.33,1660.83 1249,1774.5C 1235.33,1871.38 1184.17,1940.22 1095.5,1981C 1072.79,1990.01 1049.46,1996.18 1025.5,1999.5C 1008.17,1999.5 990.833,1999.5 973.5,1999.5C 875.249,1984.41 806.082,1931.41 766,1840.5C 757.84,1819.19 752.507,1797.19 750,1774.5C 749.667,1660.83 749.333,1547.17 749,1433.5C 656.745,1487.38 564.245,1540.88 471.5,1594C 410.026,1626.89 345.693,1633.89 278.5,1615C 204.285,1591.12 151.118,1543.62 119,1472.5C 83.0982,1377.72 96.4316,1290.72 159,1211.5C 168.5,1202 178,1192.5 187.5,1183C 196.99,1175.76 206.656,1168.76 216.5,1162C 310.032,1108.07 403.366,1053.9 496.5,999.5C 408.529,947.843 320.196,896.677 231.5,846C 146.925,796.732 102.925,722.898 99.5,624.5C 101.116,547.776 130.45,483.943 187.5,433C 257.102,377.678 335.102,361.344 421.5,384C 447.248,392.375 471.581,403.708 494.5,418C 579.415,467.04 664.248,516.207 749,565.5C 749.333,451.5 749.667,337.5 750,223.5C 763.568,127.143 814.401,58.6427 902.5,18C 925.513,8.83138 949.179,2.66472 973.5,-0.5 Z"/></g>
<g><path style="opacity:1" fill="#bbf4fe" d="M 1300.5,999.5 C 1099.83,999.5 899.167,999.5 698.5,999.5C 560.06,919.108 421.393,838.941 282.5,759C 230.086,729.713 202.419,684.88 199.5,624.5C 203.202,557.205 235.869,510.372 297.5,484C 343.511,468.085 387.511,472.418 429.5,497C 569.109,578.3 709.109,658.8 849.5,738.5C 849.333,571.5 849.5,404.5 850,237.5C 858.125,173.392 892.292,129.892 952.5,107C 1016.32,89.5026 1070.49,105.003 1115,153.5C 1134.92,177.919 1146.26,205.919 1149,237.5C 1149.5,404.5 1149.67,571.5 1149.5,738.5C 1289.89,658.8 1429.89,578.3 1569.5,497C 1632,462.963 1691.33,467.629 1747.5,511C 1796.22,558.028 1810.05,613.861 1789,678.5C 1774.65,714.182 1750.48,741.015 1716.5,759C 1577.61,838.941 1438.94,919.108 1300.5,999.5 Z"/></g>
<g><path style="opacity:1" fill="#b779ff" d="M 698.5,999.5 C 899.167,999.5 1099.83,999.5 1300.5,999.5C 1438.94,1079.89 1577.61,1160.06 1716.5,1240C 1777.37,1275.23 1804.2,1328.07 1797,1398.5C 1785.23,1458.54 1750.4,1498.38 1692.5,1518C 1658.25,1527.94 1624.59,1526.27 1591.5,1513C 1579.22,1507.19 1567.22,1500.86 1555.5,1494C 1420.42,1415.71 1285.25,1337.54 1150,1259.5C 1149.67,1426.83 1149.33,1594.17 1149,1761.5C 1140.88,1825.61 1106.71,1869.11 1046.5,1892C 979.887,1909.98 924.387,1892.82 880,1840.5C 862.721,1817.01 852.721,1790.67 850,1761.5C 849.5,1594.5 849.333,1427.5 849.5,1260.5C 709.109,1340.2 569.109,1420.7 429.5,1502C 367.004,1536.04 307.671,1531.37 251.5,1488C 202.785,1440.97 188.952,1385.14 210,1320.5C 224.349,1284.82 248.515,1257.99 282.5,1240C 421.393,1160.06 560.06,1079.89 698.5,999.5 Z"/></g>
</svg>
